<mxfile host="Electron" modified="2024-07-12T13:40:00.701Z" agent="Mozilla/5.0 (Windows NT 10.0; Win64; x64) AppleWebKit/537.36 (KHTML, like Gecko) draw.io/24.6.4 Chrome/124.0.6367.207 Electron/30.0.6 Safari/537.36" etag="SO-MzshbAL8OqGlsj7FK" version="24.6.4" type="device">
  <diagram name="Page-1" id="O1RqNY4qfk_EP-WXLdzK">
    <mxGraphModel dx="-3756" dy="-642" grid="1" gridSize="10" guides="1" tooltips="1" connect="1" arrows="1" fold="1" page="0" pageScale="1" pageWidth="850" pageHeight="1100" background="none" math="1" shadow="0">
      <root>
        <mxCell id="0" />
        <mxCell id="1" parent="0" />
        <mxCell id="vz77p3fKDz7CWSyneRn9-4" value="" style="edgeStyle=none;curved=1;rounded=1;orthogonalLoop=1;jettySize=auto;html=1;fontSize=12;startSize=8;endSize=8;entryX=0;entryY=0.5;entryDx=0;entryDy=0;" parent="1" source="vz77p3fKDz7CWSyneRn9-1" target="vz77p3fKDz7CWSyneRn9-9" edge="1">
          <mxGeometry relative="1" as="geometry">
            <mxPoint x="6057" y="1840" as="targetPoint" />
          </mxGeometry>
        </mxCell>
        <mxCell id="vz77p3fKDz7CWSyneRn9-1" value="user registration data" style="rounded=1;whiteSpace=wrap;html=1;" parent="1" vertex="1">
          <mxGeometry x="5460" y="1800" width="160" height="40" as="geometry" />
        </mxCell>
        <mxCell id="vz77p3fKDz7CWSyneRn9-6" value="" style="edgeStyle=none;curved=1;rounded=1;orthogonalLoop=1;jettySize=auto;html=1;fontSize=12;startSize=8;endSize=8;exitX=1;exitY=0.5;exitDx=0;exitDy=0;" parent="1" source="vz77p3fKDz7CWSyneRn9-9" target="vz77p3fKDz7CWSyneRn9-5" edge="1">
          <mxGeometry relative="1" as="geometry">
            <mxPoint x="6131" y="1840" as="sourcePoint" />
          </mxGeometry>
        </mxCell>
        <mxCell id="vz77p3fKDz7CWSyneRn9-23" value="create emailVerificationToken and &lt;br&gt;let email service send it with template" style="edgeLabel;html=1;align=left;verticalAlign=middle;resizable=0;points=[];fontSize=12;" parent="vz77p3fKDz7CWSyneRn9-6" vertex="1" connectable="0">
          <mxGeometry x="-0.4477" y="-2" relative="1" as="geometry">
            <mxPoint x="-24" y="-22" as="offset" />
          </mxGeometry>
        </mxCell>
        <mxCell id="vz77p3fKDz7CWSyneRn9-8" value="" style="edgeStyle=none;curved=1;rounded=1;orthogonalLoop=1;jettySize=auto;html=1;fontSize=12;startSize=8;endSize=8;" parent="1" source="vz77p3fKDz7CWSyneRn9-5" target="vz77p3fKDz7CWSyneRn9-7" edge="1">
          <mxGeometry relative="1" as="geometry" />
        </mxCell>
        <mxCell id="vz77p3fKDz7CWSyneRn9-5" value="user.registered&amp;nbsp;&lt;span style=&quot;font-size: 16px; text-wrap: nowrap;&quot;&gt;✅&lt;/span&gt;" style="rounded=1;whiteSpace=wrap;html=1;fillColor=#d5e8d4;strokeColor=#82b366;" parent="1" vertex="1">
          <mxGeometry x="6890" y="1800" width="120" height="40" as="geometry" />
        </mxCell>
        <mxCell id="vz77p3fKDz7CWSyneRn9-13" style="edgeStyle=none;curved=1;rounded=1;orthogonalLoop=1;jettySize=auto;html=1;fontSize=12;startSize=8;endSize=8;" parent="1" source="vz77p3fKDz7CWSyneRn9-7" target="vz77p3fKDz7CWSyneRn9-12" edge="1">
          <mxGeometry relative="1" as="geometry" />
        </mxCell>
        <mxCell id="vz77p3fKDz7CWSyneRn9-31" value="track sent user_confirmation_emails" style="edgeLabel;html=1;align=center;verticalAlign=middle;resizable=0;points=[];fontSize=12;" parent="vz77p3fKDz7CWSyneRn9-13" vertex="1" connectable="0">
          <mxGeometry x="-0.3318" y="1" relative="1" as="geometry">
            <mxPoint as="offset" />
          </mxGeometry>
        </mxCell>
        <mxCell id="vz77p3fKDz7CWSyneRn9-7" value="Email Service&amp;nbsp;&lt;span style=&quot;font-size: 16px; text-wrap: nowrap;&quot;&gt;✅&lt;/span&gt;" style="rounded=1;whiteSpace=wrap;html=1;fillColor=#dae8fc;strokeColor=#6c8ebf;" parent="1" vertex="1">
          <mxGeometry x="7050" y="1800" width="120" height="40" as="geometry" />
        </mxCell>
        <mxCell id="vz77p3fKDz7CWSyneRn9-18" style="edgeStyle=none;curved=1;rounded=0;orthogonalLoop=1;jettySize=auto;html=1;entryX=0.5;entryY=0;entryDx=0;entryDy=0;fontSize=12;startSize=8;endSize=8;" parent="1" source="vz77p3fKDz7CWSyneRn9-9" target="vz77p3fKDz7CWSyneRn9-17" edge="1">
          <mxGeometry relative="1" as="geometry" />
        </mxCell>
        <mxCell id="vz77p3fKDz7CWSyneRn9-9" value="User Service&amp;nbsp;&lt;span style=&quot;font-size: 16px; text-wrap: nowrap;&quot;&gt;✅&lt;/span&gt;" style="rounded=1;whiteSpace=wrap;html=1;fillColor=#dae8fc;strokeColor=#6c8ebf;" parent="1" vertex="1">
          <mxGeometry x="5840" y="1800" width="120" height="40" as="geometry" />
        </mxCell>
        <mxCell id="vz77p3fKDz7CWSyneRn9-15" value="" style="edgeStyle=none;curved=1;rounded=1;orthogonalLoop=1;jettySize=auto;html=1;fontSize=12;startSize=8;endSize=8;" parent="1" source="vz77p3fKDz7CWSyneRn9-12" target="vz77p3fKDz7CWSyneRn9-14" edge="1">
          <mxGeometry relative="1" as="geometry" />
        </mxCell>
        <mxCell id="vz77p3fKDz7CWSyneRn9-12" value="send email" style="rounded=1;whiteSpace=wrap;html=1;" parent="1" vertex="1">
          <mxGeometry x="7010" y="1720" width="196" height="40" as="geometry" />
        </mxCell>
        <mxCell id="vz77p3fKDz7CWSyneRn9-16" style="edgeStyle=orthogonalEdgeStyle;rounded=1;orthogonalLoop=1;jettySize=auto;html=1;entryX=0.5;entryY=0;entryDx=0;entryDy=0;fontSize=12;startSize=8;endSize=8;" parent="1" source="vz77p3fKDz7CWSyneRn9-14" target="vz77p3fKDz7CWSyneRn9-9" edge="1">
          <mxGeometry relative="1" as="geometry" />
        </mxCell>
        <mxCell id="vz77p3fKDz7CWSyneRn9-22" value="Set sentAt" style="edgeLabel;html=1;align=left;verticalAlign=middle;resizable=0;points=[];fontSize=12;" parent="vz77p3fKDz7CWSyneRn9-16" vertex="1" connectable="0">
          <mxGeometry x="0.4915" y="2" relative="1" as="geometry">
            <mxPoint x="8" y="47" as="offset" />
          </mxGeometry>
        </mxCell>
        <mxCell id="vz77p3fKDz7CWSyneRn9-14" value="user.confirmation-email-sent&amp;nbsp;&lt;span style=&quot;font-size: 16px; text-wrap: nowrap;&quot;&gt;✅&lt;/span&gt;" style="rounded=1;whiteSpace=wrap;html=1;fillColor=#d5e8d4;strokeColor=#82b366;" parent="1" vertex="1">
          <mxGeometry x="7010" y="1640" width="196" height="40" as="geometry" />
        </mxCell>
        <mxCell id="vz77p3fKDz7CWSyneRn9-20" style="edgeStyle=none;curved=1;rounded=0;orthogonalLoop=1;jettySize=auto;html=1;fontSize=12;startSize=8;endSize=8;" parent="1" source="vz77p3fKDz7CWSyneRn9-17" target="vz77p3fKDz7CWSyneRn9-19" edge="1">
          <mxGeometry relative="1" as="geometry" />
        </mxCell>
        <mxCell id="vz77p3fKDz7CWSyneRn9-21" style="edgeStyle=orthogonalEdgeStyle;rounded=1;orthogonalLoop=1;jettySize=auto;html=1;entryX=0.5;entryY=1;entryDx=0;entryDy=0;fontSize=12;startSize=8;endSize=8;curved=0;" parent="1" source="vz77p3fKDz7CWSyneRn9-17" target="vz77p3fKDz7CWSyneRn9-7" edge="1">
          <mxGeometry relative="1" as="geometry" />
        </mxCell>
        <mxCell id="vz77p3fKDz7CWSyneRn9-17" value="user.email-verified&amp;nbsp;&lt;span style=&quot;font-size: 16px; text-wrap: nowrap; background-color: rgb(255, 255, 255);&quot;&gt;✅&lt;/span&gt;" style="rounded=1;whiteSpace=wrap;html=1;fillColor=#d5e8d4;strokeColor=#82b366;" parent="1" vertex="1">
          <mxGeometry x="5820" y="2050" width="160" height="40" as="geometry" />
        </mxCell>
        <mxCell id="vz77p3fKDz7CWSyneRn9-19" value="Issue Tracker Service" style="rounded=1;whiteSpace=wrap;html=1;fillColor=#dae8fc;strokeColor=#6c8ebf;" parent="1" vertex="1">
          <mxGeometry x="5820" y="2130" width="160" height="40" as="geometry" />
        </mxCell>
      </root>
    </mxGraphModel>
  </diagram>
</mxfile>
